<svg width="38" height="38" viewBox="0 0 38 38" fill="none" xmlns="http://www.w3.org/2000/svg">
<path d="M23.9188 21.604H22.6997L22.2676 21.1873C24.1194 19.0269 25.0761 16.0795 24.5514 12.9469C23.8262 8.65701 20.2461 5.23124 15.9253 4.70657C9.39781 3.90414 3.90423 9.39772 4.70666 15.9252C5.23133 20.246 8.6571 23.8261 12.947 24.5514C16.0796 25.076 19.027 24.1193 21.1874 22.2675L21.604 22.6996V23.9187L28.1624 30.477C28.7951 31.1097 29.829 31.1097 30.4617 30.477C31.0944 29.8443 31.0944 28.8104 30.4617 28.1777L23.9188 21.604ZM14.6599 21.604C10.8175 21.604 7.71579 18.5022 7.71579 14.6598C7.71579 10.8174 10.8175 7.71569 14.6599 7.71569C18.5023 7.71569 21.604 10.8174 21.604 14.6598C21.604 18.5022 18.5023 21.604 14.6599 21.604Z" fill="black"/>
</svg>
